<svg xmlns="http://www.w3.org/2000/svg" viewBox="0 -0.5 26 26" shape-rendering="crispEdges">
<path stroke="#1f2120" d="M3 1h20M2 2h2M22 2h2M2 3h1M23 3h1M1 4h2M23 4h2M1 5h1M8 5h3M15 5h3M24 5h1M1 6h1M8 6h3M15 6h3M24 6h1M1 7h1M8 7h3M13 7h5M24 7h1M1 8h1M8 8h3M13 8h3M24 8h1M1 9h1M8 9h8M24 9h1M1 10h1M8 10h6M24 10h1M1 11h1M8 11h6M24 11h1M1 12h1M8 12h8M24 12h1M1 13h1M8 13h3M13 13h3M24 13h1M1 14h1M8 14h3M13 14h5M24 14h1M1 15h1M8 15h3M15 15h3M24 15h1M1 16h1M8 16h3M15 16h3M24 16h1M1 17h1M24 17h1M1 18h1M24 18h1M1 19h1M24 19h1M1 20h1M24 20h1M1 21h1M24 21h1M1 22h1M24 22h1M1 23h2M23 23h2M2 24h22" />
<path stroke="#d6d6d6" d="M4 2h18M3 3h1M22 3h1M3 4h1M22 4h1M2 5h2M22 5h2M2 6h2M22 6h2M2 7h2M22 7h2M2 8h2M22 8h2M2 9h2M22 9h2M2 10h2M22 10h2M2 11h2M22 11h2M2 12h2M22 12h2M2 13h2M22 13h2M2 14h2M22 14h2M2 15h2M22 15h2M2 16h2M22 16h2M2 17h2M22 17h2M2 18h2M22 18h2M2 19h3M21 19h3M2 20h22M2 21h22M2 22h22M3 23h20" />
<path stroke="#eeeeee" d="M4 3h18M4 4h18M4 5h4M11 5h4M18 5h4M4 6h4M11 6h4M18 6h4M4 7h4M11 7h2M18 7h4M4 8h4M11 8h2M16 8h6M4 9h4M16 9h6M4 10h4M14 10h8M4 11h4M14 11h8M4 12h4M16 12h6M4 13h4M11 13h2M16 13h6M4 14h4M11 14h2M18 14h4M4 15h4M11 15h4M18 15h4M4 16h4M11 16h4M18 16h4M4 17h18M4 18h18M5 19h16" />
</svg>
